<svg xmlns="http://www.w3.org/2000/svg" viewBox="0 0 230 64" role="img" aria-labelledby="title"><title id="title">زاد تعلم</title><defs><mask id="cut"><rect width="64" height="64" fill="white"/><path d="M22 48V31c0-7 4-12 10-15 6 3 10 8 10 15v17h-7V32c0-3-1-6-3-8-2 2-3 5-3 8v16h-7Z" fill="black"/></mask></defs><g transform="translate(166)"><path d="m32 3 8 12 14-5-3 14 10 8-10 8 3 14-14-5-8 12-8-12-14 5 3-14-10-8 10-8-3-14 14 5Z" fill="var(--tx-cream, rgb(247 242 231))" mask="url(#cut)"/><path d="m32 21 3 5-3 5-3-5Z" fill="var(--gold-400, rgb(217 180 65))"/></g><text x="154" y="43" direction="rtl" text-anchor="start" fill="var(--tx-cream, rgb(247 242 231))" font-family="Reem Kufi,Cairo,sans-serif" font-size="29" font-weight="700">زاد تعلم</text></svg>
