<svg xmlns="http://www.w3.org/2000/svg" viewBox="0 0 720 560" role="img" aria-labelledby="t d"><title id="t">رحلة تعلم العلوم الإسلامية</title><desc id="d">حاسوب يحمل مصحفًا مفتوحًا مع بطاقة دورة وشهادة ومؤشر تقدم</desc><defs><linearGradient id="bg" x1="0" y1="0" x2="1" y2="1"><stop stop-color="#fff"/><stop offset="1" stop-color="#F1EDE1"/></linearGradient><linearGradient id="screen" x1="0" y1="0" x2="1" y2="1"><stop stop-color="#1E4636"/><stop offset="1" stop-color="#2F6A50"/></linearGradient><linearGradient id="gold" x1="0" y1="0" x2="1" y2="1"><stop stop-color="#E7D8A7"/><stop offset="1" stop-color="#C8A96A"/></linearGradient><filter id="shadow" x="-30%" y="-30%" width="160%" height="180%"><feDropShadow dx="0" dy="14" stdDeviation="14" flood-color="#1E4636" flood-opacity=".16"/></filter><filter id="glow"><feGaussianBlur stdDeviation="13"/></filter><pattern id="pattern" width="42" height="42" patternUnits="userSpaceOnUse"><path d="M21 2 40 21 21 40 2 21zM21 10l11 11-11 11-11-11z" fill="none" stroke="#C8A96A" stroke-opacity=".18" stroke-width="1"/></pattern></defs>
  <rect x="2" y="2" width="716" height="556" rx="30" fill="url(#bg)"/>
  <path d="M82 470V178C82 86 196 28 256 18c60 10 174 68 174 160v292" fill="#fff" stroke="#E5DFD1" stroke-width="8"/>
  <path d="M94 464V184C94 103 198 47 256 36c58 11 162 67 162 148v280" fill="url(#pattern)"/>
  <ellipse cx="308" cy="495" rx="260" ry="31" fill="#1E4636" opacity=".1" filter="url(#glow)"/>
  <g opacity=".95"><path d="M86 474c-28-58-28-121 3-170 26 50 24 112-3 170z" fill="#668957"/><path d="M94 426c29-43 64-67 100-65-17 44-52 65-100 65z" fill="#91AA72"/><path d="M74 413c-38-31-54-67-47-102 37 21 53 56 47 102z" fill="#4C6D45"/><path d="M88 478c-2-85 8-148 28-197" fill="none" stroke="#2F6A50" stroke-width="4"/></g>
  <g filter="url(#shadow)"><path d="M160 274h330a18 18 0 0 1 18 18v175H142V292a18 18 0 0 1 18-18z" fill="#D9DDD8"/><rect x="158" y="289" width="334" height="164" rx="8" fill="url(#screen)"/><circle cx="325" cy="281" r="3" fill="#839A8B"/><path d="M100 467h450l-24 28H127z" fill="#B5BBB6"/><path d="M129 495h397c-15 12-43 16-74 16H203c-31 0-59-4-74-16z" fill="#8D9690"/><path d="M282 471h88l-8 10h-72z" fill="#747E78"/></g>
  <g filter="url(#shadow)"><ellipse cx="325" cy="380" rx="121" ry="65" fill="#E7C873" opacity=".2" filter="url(#glow)"/><path d="M324 342c-48-35-95-31-127-13l9 105c34-15 75-10 118 19z" fill="#FCF8EA" stroke="#C8A96A" stroke-width="2"/><path d="M326 342c48-35 95-31 127-13l-9 105c-34-15-75-10-118 19z" fill="#FFFDF6" stroke="#C8A96A" stroke-width="2"/><path d="M325 344v108" stroke="#A18149" stroke-width="3"/><g fill="none" stroke="#BCA876" stroke-width="1.2" opacity=".75"><path d="M217 347c31-9 62-4 91 12M218 360c31-9 62-4 91 12M220 373c30-8 59-3 87 11M222 386c29-7 57-2 84 10M223 399c28-6 55-1 82 10"/><path d="M343 359c29-16 60-21 91-12M343 372c29-16 60-21 91-12M344 384c28-14 57-19 87-11M346 396c27-12 55-17 84-10M347 409c27-11 54-16 82-10"/></g><path d="M208 434 183 465M442 434l25 31" stroke="#B18447" stroke-width="7" stroke-linecap="round"/></g>
  <g transform="translate(45 80)" filter="url(#shadow)"><rect width="220" height="150" rx="18" fill="#1E4636"/><path d="M0 110h220v40H0z" fill="#173B2E"/><g transform="translate(24 25)"><path d="M26 0c8 6 11 12 11 20H15c0-8 3-14 11-20z" fill="url(#gold)"/><path d="M10 20h32l-6 12v46c0 11-20 11-20 0V32z" fill="none" stroke="#C8A96A" stroke-width="3"/><path d="M16 38h20M16 52h20M16 66h20" stroke="#E7D8A7" stroke-width="2"/><circle cx="26" cy="51" r="16" fill="#C8A96A" opacity=".12" filter="url(#glow)"/></g><text x="82" y="46" fill="#fff" font-family="Tahoma,Arial" font-size="18" font-weight="700">مدخل إلى</text><text x="82" y="72" fill="#fff" font-family="Tahoma,Arial" font-size="18" font-weight="700">علوم القرآن</text><text x="82" y="103" fill="#D9E5DC" font-family="Tahoma,Arial" font-size="11">تقدم الدورة</text><rect x="82" y="116" width="108" height="6" rx="3" fill="#537361"/><rect x="82" y="116" width="44" height="6" rx="3" fill="#D9C57E"/><text x="197" y="124" text-anchor="end" fill="#fff" font-family="Arial" font-size="10">40%</text></g>
  <g transform="translate(468 62)" filter="url(#shadow)"><rect width="154" height="148" rx="16" fill="#fff" stroke="#E5DFD1"/><text x="77" y="30" text-anchor="middle" fill="#1E4636" font-family="Tahoma,Arial" font-size="13" font-weight="700">تقدمك العام</text><circle cx="77" cy="88" r="36" fill="none" stroke="#E7EFE7" stroke-width="10"/><circle cx="77" cy="88" r="36" fill="none" stroke="#4C8A6B" stroke-width="10" stroke-linecap="round" stroke-dasharray="170 226" transform="rotate(-90 77 88)"/><text x="77" y="96" text-anchor="middle" fill="#1E4636" font-family="Arial" font-size="21" font-weight="700">75%</text></g>
  <g transform="translate(438 362) rotate(-2)" filter="url(#shadow)"><rect width="215" height="139" rx="8" fill="#FFFCF5" stroke="#C8A96A" stroke-width="2"/><rect x="9" y="9" width="197" height="121" rx="4" fill="none" stroke="#C8A96A"/><path d="M9 30h197M9 108h197" stroke="#DCC998"/><text x="108" y="53" text-anchor="middle" direction="rtl" unicode-bidi="plaintext" fill="#1E4636" font-family="Tahoma,Arial" font-size="19" font-weight="700">شهادة إتمام</text><text x="108" y="76" text-anchor="middle" direction="rtl" unicode-bidi="plaintext" fill="#5B6B62" font-family="Tahoma,Arial" font-size="10">تقديرًا لإتمام المسار التعليمي</text><path d="M54 91h90" stroke="#C8A96A"/><circle cx="172" cy="103" r="18" fill="#C8A96A"/><circle cx="172" cy="103" r="12" fill="none" stroke="#8F733C"/><path d="m164 117-5 20 13-7 12 7-4-20" fill="#9C793D"/></g>
  <g opacity=".9"><path d="M626 487c-8-49 4-92 35-119 14 42 2 82-35 119z" fill="#668957"/><path d="M643 453c32-31 66-43 96-31-25 31-57 40-96 31z" fill="#91AA72"/><path d="M628 490c12-58 37-105 73-141" fill="none" stroke="#2F6A50" stroke-width="4"/></g>
</svg>
